<?xml version="1.0" standalone="no"?>
<!DOCTYPE svg PUBLIC "-//W3C//DTD SVG 20010904//EN"
 "http://www.w3.org/TR/2001/REC-SVG-20010904/DTD/svg10.dtd">
<svg version="1.0" xmlns="http://www.w3.org/2000/svg"
 width="8334.000000pt" height="8334.000000pt" viewBox="0 0 8334.000000 8334.000000"
 preserveAspectRatio="xMidYMid meet">

<g transform="translate(0.000000,8334.000000) scale(0.100000,-0.100000)"
fill="#000000" stroke="none">
<path d="M27798 66001 c-7621 -4448 -13868 -8095 -13882 -8105 l-26 -16 0
-16209 0 -16208 13868 -8093 c7627 -4451 13876 -8099 13887 -8106 18 -12 1348
762 13905 8091 l13885 8104 3 16213 2 16213 -13876 8099 c-7631 4454 -13883
8100 -13892 8102 -9 2 -6228 -3622 -13874 -8085z m27447 -6251 c1124 -82 2159
-504 3050 -1246 167 -139 520 -492 659 -659 445 -535 759 -1092 966 -1715 237
-710 309 -1433 220 -2212 -120 -1047 -530 -2006 -1210 -2828 -126 -152 -495
-523 -643 -646 -501 -414 -1021 -713 -1614 -928 -1135 -410 -2372 -430 -3497
-55 -398 133 -865 363 -1214 598 -460 309 -885 712 -1217 1153 -325 431 -593
932 -769 1438 -51 147 -74 192 -132 259 -86 100 -306 232 -494 297 l-75 26
-5915 5 c-3253 3 -6013 2 -6132 -2 l-218 -7 0 -6544 0 -6545 2418 4 c2661 3
2469 -1 2723 63 293 73 598 234 708 374 20 26 50 83 66 126 245 682 569 1255
1015 1794 129 156 507 535 660 662 1248 1034 2823 1418 4395 1072 730 -161
1474 -496 2058 -927 372 -274 759 -659 1046 -1041 431 -575 745 -1238 921
-1948 302 -1222 162 -2480 -400 -3583 -669 -1312 -1872 -2303 -3289 -2709
-1161 -333 -2399 -254 -3506 226 -590 255 -1112 609 -1584 1072 -596 586
-1024 1259 -1282 2016 -61 179 -64 184 -122 247 -174 186 -512 326 -897 373
-55 6 -913 10 -2507 10 l-2423 0 -2 -6982 -3 -6983 -1152 -3 -1153 -2 0 6985
0 6985 -1169 0 -1170 0 -113 -29 c-430 -112 -795 -304 -1060 -560 -177 -170
-270 -305 -378 -552 -395 -903 -981 -1605 -1790 -2143 -233 -155 -353 -225
-605 -347 -569 -277 -1152 -441 -1815 -511 -167 -17 -844 -18 -995 0 -553 64
-963 163 -1435 349 -199 78 -517 231 -701 338 -1798 1041 -2843 3023 -2653
5035 150 1590 1016 3033 2349 3915 1038 687 2279 978 3548 835 1131 -129 2173
-607 2980 -1367 605 -570 1052 -1264 1343 -2083 31 -85 69 -176 85 -202 139
-218 579 -403 1154 -487 135 -20 184 -21 1283 -21 l1142 0 0 7715 0 7715 7300
0 7300 0 67 25 c216 82 401 247 507 455 24 47 65 146 91 220 450 1283 1370
2325 2595 2936 615 307 1284 492 1960 543 166 12 562 13 725 1z"/>
<path d="M54565 57495 c-613 -67 -1187 -315 -1665 -720 -216 -184 -460 -469
-616 -720 -89 -145 -211 -398 -269 -560 -184 -510 -223 -1064 -114 -1605 192
-952 894 -1814 1804 -2216 728 -321 1529 -338 2270 -47 765 300 1381 891 1714
1644 344 780 344 1650 0 2438 -150 344 -351 635 -623 907 -247 247 -492 422
-801 574 -347 171 -672 266 -1047 305 -177 18 -485 18 -653 0z"/>
<path d="M47710 42103 c-455 -31 -825 -130 -1209 -323 -845 -423 -1423 -1196
-1596 -2132 -42 -232 -58 -606 -35 -839 60 -605 289 -1168 670 -1649 106 -135
345 -373 480 -480 302 -240 665 -430 1018 -535 278 -82 525 -117 822 -118 364
0 660 50 1000 169 839 292 1536 950 1875 1767 82 199 161 540 186 801 17 177
6 567 -20 736 -164 1060 -839 1935 -1822 2361 -414 180 -938 272 -1369 242z"/>
<path d="M25881 42070 c-765 -60 -1451 -380 -1976 -921 -151 -156 -231 -255
-356 -442 -359 -539 -541 -1200 -500 -1811 30 -434 139 -825 337 -1204 429
-820 1208 -1422 2081 -1606 371 -78 771 -80 1157 -6 417 81 854 269 1210 522
639 455 1096 1141 1250 1876 45 214 59 360 59 597 0 483 -88 854 -308 1300
-219 445 -511 797 -910 1095 -429 321 -919 517 -1464 584 -153 19 -437 27
-580 16z"/>
</g>
</svg>
